<svg xmlns="http://www.w3.org/2000/svg" xmlns:xlink="http://www.w3.org/1999/xlink" id="processonSvg1000" viewBox="174.00000000000006 125.0 1054.0 521.375" width="1054.0" height="521.375"><defs id="ProcessOnDefs1001"><marker id="ProcessOnMarker1012" markerUnits="userSpaceOnUse" orient="auto" markerWidth="16.23606797749979" markerHeight="10.550836550532098" viewBox="-1.0 -1.3763819204711736 16.23606797749979 10.550836550532098" refX="-1.0" refY="3.8990363547948754"><path id="ProcessOnPath1013" d="M12.0 3.8990363547948754L0.0 7.798072709589751V0.0Z" stroke="#323232" stroke-width="2.0" fill="#323232" transform="matrix(1.0,0.0,0.0,1.0,0.0,0.0)"/></marker><marker id="ProcessOnMarker1024" markerUnits="userSpaceOnUse" orient="auto" markerWidth="16.23606797749979" markerHeight="10.550836550532098" viewBox="-1.0 -1.3763819204711736 16.23606797749979 10.550836550532098" refX="-1.0" refY="3.8990363547948754"><path id="ProcessOnPath1025" d="M12.0 3.8990363547948754L0.0 7.798072709589751V0.0Z" stroke="#323232" stroke-width="2.0" fill="#323232" transform="matrix(1.0,0.0,0.0,1.0,0.0,0.0)"/></marker><marker id="ProcessOnMarker1031" markerUnits="userSpaceOnUse" orient="auto" markerWidth="16.23606797749979" markerHeight="10.550836550532098" viewBox="-1.0 -1.3763819204711736 16.23606797749979 10.550836550532098" refX="-1.0" refY="3.8990363547948754"><path id="ProcessOnPath1032" d="M12.0 3.8990363547948754L0.0 7.798072709589751V0.0Z" stroke="#323232" stroke-width="2.0" fill="#323232" transform="matrix(1.0,0.0,0.0,1.0,0.0,0.0)"/></marker><marker id="ProcessOnMarker1043" markerUnits="userSpaceOnUse" orient="auto" markerWidth="16.23606797749979" markerHeight="10.550836550532098" viewBox="-1.0 -1.3763819204711736 16.23606797749979 10.550836550532098" refX="-1.0" refY="3.8990363547948754"><path id="ProcessOnPath1044" d="M12.0 3.8990363547948754L0.0 7.798072709589751V0.0Z" stroke="#323232" stroke-width="2.0" fill="#323232" transform="matrix(1.0,0.0,0.0,1.0,0.0,0.0)"/></marker><marker id="ProcessOnMarker1050" markerUnits="userSpaceOnUse" orient="auto" markerWidth="16.23606797749979" markerHeight="10.550836550532098" viewBox="-1.0 -1.3763819204711736 16.23606797749979 10.550836550532098" refX="-1.0" refY="3.8990363547948754"><path id="ProcessOnPath1051" d="M12.0 3.8990363547948754L0.0 7.798072709589751V0.0Z" stroke="#323232" stroke-width="2.0" fill="#323232" transform="matrix(1.0,0.0,0.0,1.0,0.0,0.0)"/></marker><marker id="ProcessOnMarker1062" markerUnits="userSpaceOnUse" orient="auto" markerWidth="16.23606797749979" markerHeight="10.550836550532098" viewBox="-1.0 -1.3763819204711736 16.23606797749979 10.550836550532098" refX="-1.0" refY="3.8990363547948754"><path id="ProcessOnPath1063" d="M12.0 3.8990363547948754L0.0 7.798072709589751V0.0Z" stroke="#323232" stroke-width="2.0" fill="#323232" transform="matrix(1.0,0.0,0.0,1.0,0.0,0.0)"/></marker><marker id="ProcessOnMarker1069" markerUnits="userSpaceOnUse" orient="auto" markerWidth="16.23606797749979" markerHeight="10.550836550532098" viewBox="-1.0 -1.3763819204711736 16.23606797749979 10.550836550532098" refX="-1.0" refY="3.8990363547948754"><path id="ProcessOnPath1070" d="M12.0 3.8990363547948754L0.0 7.798072709589751V0.0Z" stroke="#323232" stroke-width="2.0" fill="#323232" transform="matrix(1.0,0.0,0.0,1.0,0.0,0.0)"/></marker><marker id="ProcessOnMarker1076" markerUnits="userSpaceOnUse" orient="auto" markerWidth="16.23606797749979" markerHeight="10.550836550532098" viewBox="-1.0 -1.3763819204711736 16.23606797749979 10.550836550532098" refX="-1.0" refY="3.8990363547948754"><path id="ProcessOnPath1077" d="M12.0 3.8990363547948754L0.0 7.798072709589751V0.0Z" stroke="#323232" stroke-width="2.0" fill="#323232" transform="matrix(1.0,0.0,0.0,1.0,0.0,0.0)"/></marker><marker id="ProcessOnMarker1083" markerUnits="userSpaceOnUse" orient="auto" markerWidth="16.23606797749979" markerHeight="10.550836550532098" viewBox="-1.0 -1.3763819204711736 16.23606797749979 10.550836550532098" refX="-1.0" refY="3.8990363547948754"><path id="ProcessOnPath1084" d="M12.0 3.8990363547948754L0.0 7.798072709589751V0.0Z" stroke="#323232" stroke-width="2.0" fill="#323232" transform="matrix(1.0,0.0,0.0,1.0,0.0,0.0)"/></marker><marker id="ProcessOnMarker1092" markerUnits="userSpaceOnUse" orient="auto" markerWidth="16.23606797749979" markerHeight="10.550836550532098" viewBox="-1.0 -1.3763819204711736 16.23606797749979 10.550836550532098" refX="-1.0" refY="3.8990363547948754"><path id="ProcessOnPath1093" d="M12.0 3.8990363547948754L0.0 7.798072709589751V0.0Z" stroke="#323232" stroke-width="2.0" fill="#323232" transform="matrix(1.0,0.0,0.0,1.0,0.0,0.0)"/></marker></defs><g id="ProcessOnG1002"><path id="ProcessOnPath1003" d="M174.00000000000006 125.0H1228.0V646.375H174.0V125.0Z" fill="none"/><g id="ProcessOnG1004"><g id="ProcessOnG1005" transform="matrix(1.0,0.0,0.0,1.0,386.0,145.00000000000006)" opacity="1.0"><path id="ProcessOnPath1006" d="M54.0 30.0L54.0 469.0" stroke="#323232" stroke-width="2.0" stroke-dasharray="2.0 3.0" opacity="1.0" fill="none"/><path id="ProcessOnPath1007" d="M0.0 0.0L108.0 0.0L108.0 30.0L0.0 30.0Z" stroke="#323232" stroke-width="2.0" stroke-dasharray="none" opacity="1.0" fill="#ffffff"/><g id="ProcessOnG1008" transform="matrix(1.0,0.0,0.0,1.0,10.0,6.875)"><text id="ProcessOnText1009" fill="#000000" font-size="13" x="43.0" y="13.325" font-family="微软雅黑" font-weight="normal" font-style="normal" text-decoration="none" family="微软雅黑" text-anchor="middle" size="13">Handler</text></g></g><g id="ProcessOnG1010"><path id="ProcessOnPath1011" d="M195.0 260.00000000000017L313.0 260.00000000000017L313.0 259.9999999999998L415.7639320225002 259.9999999999998" stroke="#323232" stroke-width="2.0" stroke-dasharray="none" fill="none" marker-end="url(#ProcessOnMarker1012)"/><g id="ProcessOnG1014" transform="matrix(1.0,0.0,0.0,1.0,305.3819660112503,251.87500000000017)"><path id="ProcessOnPath1015" d="M0 0H183.0V16.25H0Z" fill="#fff" transform="matrix(1.0,0.0,0.0,1.0,-91.5,0.0)"/><text id="ProcessOnText1016" fill="#000000" font-size="13" x="0.0" y="13.325" font-family="微软雅黑" font-weight="normal" font-style="normal" text-decoration="none" family="微软雅黑" text-anchor="middle" size="13"> handler.sendMessage(m's'g); </text></g></g><g id="ProcessOnG1017" transform="matrix(1.0,0.0,0.0,1.0,610.0,145.0)" opacity="1.0"><path id="ProcessOnPath1018" d="M59.5 30.0L59.5 469.0" stroke="#323232" stroke-width="2.0" stroke-dasharray="2.0 3.0" opacity="1.0" fill="none"/><path id="ProcessOnPath1019" d="M0.0 0.0L119.0 0.0L119.0 30.0L0.0 30.0Z" stroke="#323232" stroke-width="2.0" stroke-dasharray="none" opacity="1.0" fill="#ffffff"/><g id="ProcessOnG1020" transform="matrix(1.0,0.0,0.0,1.0,10.0,6.875)"><text id="ProcessOnText1021" fill="#000000" font-size="13" x="48.5" y="13.325" font-family="微软雅黑" font-weight="normal" font-style="normal" text-decoration="none" family="微软雅黑" text-anchor="middle" size="13">MessageQueue</text></g></g><g id="ProcessOnG1022"><path id="ProcessOnPath1023" d="M443.0 355.00000000000017L554.0 355.00000000000017L554.0 355.0L649.7639320225002 355.0" stroke="#323232" stroke-width="2.0" stroke-dasharray="none" fill="none" marker-end="url(#ProcessOnMarker1024)"/><g id="ProcessOnG1026" transform="matrix(1.0,0.0,0.0,1.0,546.3819660112501,346.87500000000017)"><path id="ProcessOnPath1027" d="M0 0H175.0V16.25H0Z" fill="#fff" transform="matrix(1.0,0.0,0.0,1.0,-87.5,0.0)"/><text id="ProcessOnText1028" fill="#000000" font-size="13" x="0.0" y="13.325" font-family="微软雅黑" font-weight="normal" font-style="normal" text-decoration="none" family="微软雅黑" text-anchor="middle" size="13">handler.sendMessage(m's'g);</text></g></g><g id="ProcessOnG1029"><path id="ProcessOnPath1030" d="M675.0 382.0L786.0 382.0L786.0 381.99999999999994L881.7639320225002 381.99999999999994" stroke="#323232" stroke-width="2.0" stroke-dasharray="none" fill="none" marker-end="url(#ProcessOnMarker1031)"/><g id="ProcessOnG1033" transform="matrix(1.0,0.0,0.0,1.0,778.3819660112501,373.875)"><path id="ProcessOnPath1034" d="M0 0H112.0V16.25H0Z" fill="#fff" transform="matrix(1.0,0.0,0.0,1.0,-56.0,0.0)"/><text id="ProcessOnText1035" fill="#000000" font-size="13" x="0.0" y="13.325" font-family="微软雅黑" font-weight="normal" font-style="normal" text-decoration="none" family="微软雅黑" text-anchor="middle" size="13">native nativeWake</text></g></g><g id="ProcessOnG1036" transform="matrix(1.0,0.0,0.0,1.0,1089.0,145.0)" opacity="1.0"><path id="ProcessOnPath1037" d="M59.5 30.0L59.5 469.0" stroke="#323232" stroke-width="2.0" stroke-dasharray="2.0 3.0" opacity="1.0" fill="none"/><path id="ProcessOnPath1038" d="M0.0 0.0L119.0 0.0L119.0 30.0L0.0 30.0Z" stroke="#323232" stroke-width="2.0" stroke-dasharray="none" opacity="1.0" fill="#ffffff"/><g id="ProcessOnG1039" transform="matrix(1.0,0.0,0.0,1.0,10.0,6.875)"><text id="ProcessOnText1040" fill="#000000" font-size="13" x="48.5" y="13.325" font-family="微软雅黑" font-weight="normal" font-style="normal" text-decoration="none" family="微软雅黑" text-anchor="middle" size="13">Looper</text></g></g><g id="ProcessOnG1041"><path id="ProcessOnPath1042" d="M1169.0 416.0L1169.0 441.9999999999998L1169.0 441.9999999999998L1169.0 452.76393202249983" stroke="#323232" stroke-width="2.0" stroke-dasharray="none" fill="none" marker-end="url(#ProcessOnMarker1043)"/><g id="ProcessOnG1045" transform="matrix(1.0,0.0,0.0,1.0,1169.0,426.2569660112499)"><path id="ProcessOnPath1046" d="M0 0H27.0V16.25H0Z" fill="#fff" transform="matrix(1.0,0.0,0.0,1.0,-13.5,0.0)"/><text id="ProcessOnText1047" fill="#000000" font-size="13" x="0.0" y="13.325" font-family="微软雅黑" font-weight="normal" font-style="normal" text-decoration="none" family="微软雅黑" text-anchor="middle" size="13">loop</text></g></g><g id="ProcessOnG1048"><path id="ProcessOnPath1049" d="M450.9999999999999 289.00000000000017L450.9999999999999 312.0L451.0 312.0L451.0 319.7639320225" stroke="#323232" stroke-width="2.0" stroke-dasharray="none" fill="none" marker-end="url(#ProcessOnMarker1050)"/><g id="ProcessOnG1052" transform="matrix(1.0,0.0,0.0,1.0,450.9999999999999,296.25696601125014)"><path id="ProcessOnPath1053" d="M0 0H107.0V16.25H0Z" fill="#fff" transform="matrix(1.0,0.0,0.0,1.0,-53.5,0.0)"/><text id="ProcessOnText1054" fill="#000000" font-size="13" x="-53.5" y="13.325" font-family="微软雅黑" font-weight="normal" font-style="normal" text-decoration="none" family="微软雅黑" text-anchor="start" size="13">enqueueMessage</text></g></g><g id="ProcessOnG1055" transform="matrix(1.0,0.0,0.0,1.0,843.0,145.0)" opacity="1.0"><path id="ProcessOnPath1056" d="M59.5 30.0L59.5 469.0" stroke="#323232" stroke-width="2.0" stroke-dasharray="2.0 3.0" opacity="1.0" fill="none"/><path id="ProcessOnPath1057" d="M0.0 0.0L119.0 0.0L119.0 30.0L0.0 30.0Z" stroke="#323232" stroke-width="2.0" stroke-dasharray="none" opacity="1.0" fill="#ffffff"/><g id="ProcessOnG1058" transform="matrix(1.0,0.0,0.0,1.0,10.0,6.875)"><text id="ProcessOnText1059" fill="#000000" font-size="13" x="48.5" y="13.325" font-family="微软雅黑" font-weight="normal" font-style="normal" text-decoration="none" family="微软雅黑" text-anchor="middle" size="13">native</text></g></g><g id="ProcessOnG1060"><path id="ProcessOnPath1061" d="M903.0 408.99999999999994L1021.0 408.99999999999994L1021.0 409.00000000000006L1123.7639320225003 409.00000000000006" stroke="#323232" stroke-width="2.0" stroke-dasharray="none" fill="none" marker-end="url(#ProcessOnMarker1062)"/><g id="ProcessOnG1064" transform="matrix(1.0,0.0,0.0,1.0,1013.3819660112501,400.87499999999994)"><path id="ProcessOnPath1065" d="M0 0H53.0V16.25H0Z" fill="#fff" transform="matrix(1.0,0.0,0.0,1.0,-26.5,0.0)"/><text id="ProcessOnText1066" fill="#000000" font-size="13" x="0.0" y="13.325" font-family="微软雅黑" font-weight="normal" font-style="normal" text-decoration="none" family="微软雅黑" text-anchor="middle" size="13">触发loop</text></g></g><g id="ProcessOnG1067"><path id="ProcessOnPath1068" d="M1146.0 483.9999999999995L797.0000000000001 483.9999999999995L797.0000000000001 484.0000000000002L463.2360679774999 484.0000000000002" stroke="#323232" stroke-width="2.0" stroke-dasharray="none" fill="none" marker-end="url(#ProcessOnMarker1069)"/><g id="ProcessOnG1071" transform="matrix(1.0,0.0,0.0,1.0,804.6180339887496,475.8749999999995)"><path id="ProcessOnPath1072" d="M0 0H175.0V16.25H0Z" fill="#fff" transform="matrix(1.0,0.0,0.0,1.0,-87.5,0.0)"/><text id="ProcessOnText1073" fill="#000000" font-size="13" x="0.0" y="13.325" font-family="微软雅黑" font-weight="normal" font-style="normal" text-decoration="none" family="微软雅黑" text-anchor="middle" size="13">msg.target.dispatchMessage</text></g></g><g id="ProcessOnG1074"><path id="ProcessOnPath1075" d="M194.00000000000006 222.0L312.0 222.0L312.0 221.99999999999997L414.7639320225002 221.99999999999997" stroke="#323232" stroke-width="2.0" stroke-dasharray="none" fill="none" marker-end="url(#ProcessOnMarker1076)"/><g id="ProcessOnG1078" transform="matrix(1.0,0.0,0.0,1.0,304.38196601125014,213.875)"><path id="ProcessOnPath1079" d="M0 0H95.0V16.25H0Z" fill="#fff" transform="matrix(1.0,0.0,0.0,1.0,-47.5,0.0)"/><text id="ProcessOnText1080" fill="#000000" font-size="13" x="0.0" y="13.325" font-family="微软雅黑" font-weight="normal" font-style="normal" text-decoration="none" family="微软雅黑" text-anchor="middle" size="13"> handler.post(); </text></g></g><g id="ProcessOnG1081"><path id="ProcessOnPath1082" d="M432.0 523.0L319.0 523.0L319.0 522.9999999999999L221.23606797749986 522.9999999999999" stroke="#323232" stroke-width="2.0" stroke-dasharray="none" fill="none" marker-end="url(#ProcessOnMarker1083)"/><g id="ProcessOnG1085" transform="matrix(1.0,0.0,0.0,1.0,326.61803398874986,498.625)"><path id="ProcessOnPath1086" d="M0 0H118.0V48.75H0Z" fill="#fff" transform="matrix(1.0,0.0,0.0,1.0,-59.0,0.0)"/><text id="ProcessOnText1087" fill="#000000" font-size="13" x="0.0" y="13.325" font-family="微软雅黑" font-weight="normal" font-style="normal" text-decoration="none" family="微软雅黑" text-anchor="middle" size="13">msg.callback!= null</text><text id="ProcessOnText1088" fill="#000000" font-size="13" x="0.0" y="29.575" font-family="微软雅黑" font-weight="normal" font-style="normal" text-decoration="none" family="微软雅黑" text-anchor="middle" size="13">对应post, </text><text id="ProcessOnText1089" fill="#000000" font-size="13" x="0.0" y="45.825" font-family="微软雅黑" font-weight="normal" font-style="normal" text-decoration="none" family="微软雅黑" text-anchor="middle" size="13">回调Runnable</text></g></g><g id="ProcessOnG1090"><path id="ProcessOnPath1091" d="M430.0 602.0L314.5 602.0L314.5 601.9999999999998L214.2360679774998 601.9999999999998" stroke="#323232" stroke-width="2.0" stroke-dasharray="none" fill="none" marker-end="url(#ProcessOnMarker1092)"/><g id="ProcessOnG1094" transform="matrix(1.0,0.0,0.0,1.0,322.1180339887498,577.625)"><path id="ProcessOnPath1095" d="M0 0H172.0V48.75H0Z" fill="#fff" transform="matrix(1.0,0.0,0.0,1.0,-86.0,0.0)"/><text id="ProcessOnText1096" fill="#000000" font-size="13" x="0.0" y="13.325" font-family="微软雅黑" font-weight="normal" font-style="normal" text-decoration="none" family="微软雅黑" text-anchor="middle" size="13">mCallback != null</text><text id="ProcessOnText1097" fill="#000000" font-size="13" x="0.0" y="29.575" font-family="微软雅黑" font-weight="normal" font-style="normal" text-decoration="none" family="微软雅黑" text-anchor="middle" size="13">对应new Handler.Callback(), </text><text id="ProcessOnText1098" fill="#000000" font-size="13" x="0.0" y="45.825" font-family="微软雅黑" font-weight="normal" font-style="normal" text-decoration="none" family="微软雅黑" text-anchor="middle" size="13">回调handleMessage</text></g></g></g></g></svg>